<mxfile host="app.diagrams.net" modified="2023-07-23T04:24:43.991Z" agent="Mozilla/5.0 (Macintosh; Intel Mac OS X 10_15_7) AppleWebKit/537.36 (KHTML, like Gecko) Chrome/114.0.0.0 Safari/537.36" etag="3PBxjDc-edknMHZF8zIh" version="21.6.5" type="github">
  <diagram name="Page-1" id="rWWj_qtIsv-oKYDBHCWV">
    <mxGraphModel dx="1794" dy="710" grid="1" gridSize="10" guides="1" tooltips="1" connect="1" arrows="1" fold="1" page="1" pageScale="1" pageWidth="850" pageHeight="1100" math="0" shadow="0">
      <root>
        <mxCell id="0" />
        <mxCell id="1" parent="0" />
        <mxCell id="VyJmxwMcTbn1-GyXSy20-11" style="edgeStyle=orthogonalEdgeStyle;rounded=0;orthogonalLoop=1;jettySize=auto;html=1;entryX=0.111;entryY=-0.067;entryDx=0;entryDy=0;entryPerimeter=0;" edge="1" parent="1" source="VyJmxwMcTbn1-GyXSy20-12" target="VyJmxwMcTbn1-GyXSy20-21">
          <mxGeometry relative="1" as="geometry" />
        </mxCell>
        <mxCell id="VyJmxwMcTbn1-GyXSy20-12" value="Catalog" style="rounded=1;whiteSpace=wrap;html=1;" vertex="1" parent="1">
          <mxGeometry x="850" y="310" width="120" height="60" as="geometry" />
        </mxCell>
        <mxCell id="VyJmxwMcTbn1-GyXSy20-13" style="edgeStyle=orthogonalEdgeStyle;rounded=0;orthogonalLoop=1;jettySize=auto;html=1;entryX=0.369;entryY=1.033;entryDx=0;entryDy=0;entryPerimeter=0;startArrow=classic;startFill=1;" edge="1" parent="1" source="VyJmxwMcTbn1-GyXSy20-15" target="VyJmxwMcTbn1-GyXSy20-23">
          <mxGeometry relative="1" as="geometry" />
        </mxCell>
        <mxCell id="VyJmxwMcTbn1-GyXSy20-14" style="edgeStyle=orthogonalEdgeStyle;rounded=0;orthogonalLoop=1;jettySize=auto;html=1;entryX=0.372;entryY=0.017;entryDx=0;entryDy=0;entryPerimeter=0;" edge="1" parent="1" source="VyJmxwMcTbn1-GyXSy20-15" target="VyJmxwMcTbn1-GyXSy20-21">
          <mxGeometry relative="1" as="geometry" />
        </mxCell>
        <mxCell id="VyJmxwMcTbn1-GyXSy20-15" value="Basket / Ordering" style="rounded=1;whiteSpace=wrap;html=1;" vertex="1" parent="1">
          <mxGeometry x="990" y="310" width="120" height="60" as="geometry" />
        </mxCell>
        <mxCell id="VyJmxwMcTbn1-GyXSy20-16" style="edgeStyle=orthogonalEdgeStyle;rounded=0;orthogonalLoop=1;jettySize=auto;html=1;entryX=0.63;entryY=0.983;entryDx=0;entryDy=0;entryPerimeter=0;startArrow=classic;startFill=1;" edge="1" parent="1" source="VyJmxwMcTbn1-GyXSy20-18" target="VyJmxwMcTbn1-GyXSy20-23">
          <mxGeometry relative="1" as="geometry" />
        </mxCell>
        <mxCell id="VyJmxwMcTbn1-GyXSy20-17" style="edgeStyle=orthogonalEdgeStyle;rounded=0;orthogonalLoop=1;jettySize=auto;html=1;entryX=0.631;entryY=-0.05;entryDx=0;entryDy=0;entryPerimeter=0;" edge="1" parent="1" source="VyJmxwMcTbn1-GyXSy20-18" target="VyJmxwMcTbn1-GyXSy20-21">
          <mxGeometry relative="1" as="geometry" />
        </mxCell>
        <mxCell id="VyJmxwMcTbn1-GyXSy20-18" value="..." style="rounded=1;whiteSpace=wrap;html=1;" vertex="1" parent="1">
          <mxGeometry x="1130" y="310" width="120" height="60" as="geometry" />
        </mxCell>
        <mxCell id="VyJmxwMcTbn1-GyXSy20-19" style="edgeStyle=orthogonalEdgeStyle;rounded=0;orthogonalLoop=1;jettySize=auto;html=1;entryX=0.889;entryY=1;entryDx=0;entryDy=0;entryPerimeter=0;startArrow=classic;startFill=1;" edge="1" parent="1" source="VyJmxwMcTbn1-GyXSy20-20" target="VyJmxwMcTbn1-GyXSy20-23">
          <mxGeometry relative="1" as="geometry" />
        </mxCell>
        <mxCell id="VyJmxwMcTbn1-GyXSy20-20" value="Payment" style="rounded=1;whiteSpace=wrap;html=1;" vertex="1" parent="1">
          <mxGeometry x="1270" y="310" width="120" height="60" as="geometry" />
        </mxCell>
        <mxCell id="VyJmxwMcTbn1-GyXSy20-21" value="DB / Redis / Elasticsearch / Kafka / ..." style="rounded=1;whiteSpace=wrap;html=1;" vertex="1" parent="1">
          <mxGeometry x="850" y="470" width="540" height="60" as="geometry" />
        </mxCell>
        <mxCell id="VyJmxwMcTbn1-GyXSy20-22" style="edgeStyle=orthogonalEdgeStyle;rounded=0;orthogonalLoop=1;jettySize=auto;html=1;entryX=0.5;entryY=0;entryDx=0;entryDy=0;startArrow=classic;startFill=1;" edge="1" parent="1" source="VyJmxwMcTbn1-GyXSy20-23" target="VyJmxwMcTbn1-GyXSy20-12">
          <mxGeometry relative="1" as="geometry">
            <Array as="points">
              <mxPoint x="910" y="280" />
              <mxPoint x="910" y="280" />
            </Array>
          </mxGeometry>
        </mxCell>
        <mxCell id="VyJmxwMcTbn1-GyXSy20-23" value="Temporal" style="rounded=1;whiteSpace=wrap;html=1;" vertex="1" parent="1">
          <mxGeometry x="850" y="210" width="540" height="60" as="geometry" />
        </mxCell>
        <mxCell id="VyJmxwMcTbn1-GyXSy20-27" style="edgeStyle=orthogonalEdgeStyle;rounded=0;orthogonalLoop=1;jettySize=auto;html=1;entryX=0.765;entryY=1.033;entryDx=0;entryDy=0;entryPerimeter=0;startArrow=classic;startFill=1;" edge="1" parent="1" source="VyJmxwMcTbn1-GyXSy20-28" target="VyJmxwMcTbn1-GyXSy20-23">
          <mxGeometry relative="1" as="geometry">
            <Array as="points">
              <mxPoint x="1263" y="420" />
            </Array>
          </mxGeometry>
        </mxCell>
        <mxCell id="VyJmxwMcTbn1-GyXSy20-28" value="Wallet" style="rounded=1;whiteSpace=wrap;html=1;" vertex="1" parent="1">
          <mxGeometry x="1280" y="390" width="110" height="60" as="geometry" />
        </mxCell>
        <mxCell id="VyJmxwMcTbn1-GyXSy20-34" style="edgeStyle=orthogonalEdgeStyle;rounded=0;orthogonalLoop=1;jettySize=auto;html=1;entryX=0.5;entryY=0;entryDx=0;entryDy=0;exitX=0.5;exitY=1;exitDx=0;exitDy=0;" edge="1" parent="1" source="VyJmxwMcTbn1-GyXSy20-4" target="VyJmxwMcTbn1-GyXSy20-25">
          <mxGeometry relative="1" as="geometry">
            <Array as="points">
              <mxPoint x="135" y="130" />
              <mxPoint x="-60" y="130" />
            </Array>
          </mxGeometry>
        </mxCell>
        <mxCell id="VyJmxwMcTbn1-GyXSy20-4" value="Customer BFF" style="rounded=1;whiteSpace=wrap;html=1;" vertex="1" parent="1">
          <mxGeometry x="80" y="40" width="110" height="60" as="geometry" />
        </mxCell>
        <mxCell id="VyJmxwMcTbn1-GyXSy20-36" style="edgeStyle=orthogonalEdgeStyle;rounded=0;orthogonalLoop=1;jettySize=auto;html=1;entryX=0.5;entryY=0;entryDx=0;entryDy=0;" edge="1" parent="1" source="VyJmxwMcTbn1-GyXSy20-6" target="VyJmxwMcTbn1-GyXSy20-31">
          <mxGeometry relative="1" as="geometry">
            <Array as="points">
              <mxPoint x="395" y="150" />
              <mxPoint x="140" y="150" />
            </Array>
          </mxGeometry>
        </mxCell>
        <mxCell id="VyJmxwMcTbn1-GyXSy20-6" value="Operation BFF" style="rounded=1;whiteSpace=wrap;html=1;" vertex="1" parent="1">
          <mxGeometry x="340" y="40" width="110" height="60" as="geometry" />
        </mxCell>
        <mxCell id="VyJmxwMcTbn1-GyXSy20-35" style="edgeStyle=orthogonalEdgeStyle;rounded=0;orthogonalLoop=1;jettySize=auto;html=1;entryX=0.5;entryY=0;entryDx=0;entryDy=0;" edge="1" parent="1" source="VyJmxwMcTbn1-GyXSy20-7" target="VyJmxwMcTbn1-GyXSy20-30">
          <mxGeometry relative="1" as="geometry">
            <Array as="points">
              <mxPoint x="265" y="140" />
              <mxPoint x="40" y="140" />
            </Array>
          </mxGeometry>
        </mxCell>
        <mxCell id="VyJmxwMcTbn1-GyXSy20-7" value="Merchants BFF" style="rounded=1;whiteSpace=wrap;html=1;" vertex="1" parent="1">
          <mxGeometry x="210" y="40" width="110" height="60" as="geometry" />
        </mxCell>
        <mxCell id="VyJmxwMcTbn1-GyXSy20-9" value="Metric / Tracing" style="rounded=1;whiteSpace=wrap;html=1;dashed=1;fillColor=#f5f5f5;fontColor=#333333;strokeColor=#666666;" vertex="1" parent="1">
          <mxGeometry x="730" y="340" width="110" height="60" as="geometry" />
        </mxCell>
        <mxCell id="VyJmxwMcTbn1-GyXSy20-32" value="Auth" style="swimlane;whiteSpace=wrap;html=1;" vertex="1" parent="1">
          <mxGeometry x="-110" y="170" width="300" height="100" as="geometry" />
        </mxCell>
        <mxCell id="VyJmxwMcTbn1-GyXSy20-30" value="Supertokens&lt;br&gt;Merchant" style="rounded=1;whiteSpace=wrap;html=1;" vertex="1" parent="VyJmxwMcTbn1-GyXSy20-32">
          <mxGeometry x="110" y="40" width="80" height="40" as="geometry" />
        </mxCell>
        <mxCell id="VyJmxwMcTbn1-GyXSy20-25" value="Supertokens&lt;br&gt;Customer" style="rounded=1;whiteSpace=wrap;html=1;" vertex="1" parent="VyJmxwMcTbn1-GyXSy20-32">
          <mxGeometry x="10" y="40" width="80" height="40" as="geometry" />
        </mxCell>
        <mxCell id="VyJmxwMcTbn1-GyXSy20-31" value="Supertokens&lt;br&gt;Operation" style="rounded=1;whiteSpace=wrap;html=1;" vertex="1" parent="VyJmxwMcTbn1-GyXSy20-32">
          <mxGeometry x="210" y="40" width="80" height="40" as="geometry" />
        </mxCell>
      </root>
    </mxGraphModel>
  </diagram>
</mxfile>
